<?xml version="1.0" standalone="no"?>
<!DOCTYPE svg PUBLIC "-//W3C//DTD SVG 20010904//EN"
 "http://www.w3.org/TR/2001/REC-SVG-20010904/DTD/svg10.dtd">
<svg version="1.0" xmlns="http://www.w3.org/2000/svg"
 width="450.000000pt" height="450.000000pt" viewBox="0 0 450.000000 450.000000"
 preserveAspectRatio="xMidYMid meet">
<metadata>
Created by potrace 1.14, written by Peter Selinger 2001-2017
</metadata>
<g transform="translate(0.000000,450.000000) scale(0.100000,-0.100000)"
fill="#000000" stroke="none">
<path d="M673 4075 c-29 -7 -53 -11 -53 -9 0 7 -139 -50 -179 -73 -60 -35
-140 -116 -176 -177 -89 -153 -103 -358 -40 -607 33 -128 57 -194 127 -348 56
-123 203 -376 270 -466 4 -5 44 -59 89 -120 45 -60 125 -162 178 -225 102
-122 410 -436 525 -535 38 -33 74 -65 80 -70 6 -6 67 -56 136 -111 636 -512
1253 -818 1835 -909 85 -14 271 -13 353 1 86 15 192 50 192 63 0 4 -275 374
-611 822 -336 447 -633 844 -660 881 l-50 67 296 400 c162 220 298 406 300
413 4 10 -51 13 -265 12 -254 -1 -272 -2 -285 -20 -23 -32 -573 -778 -582
-789 -21 -26 -262 -353 -278 -378 -11 -18 -15 -31 -9 -35 6 -4 55 -43 110 -87
54 -45 127 -103 162 -129 60 -46 64 -47 77 -30 7 11 55 76 107 146 l95 127 48
-67 c27 -37 52 -69 55 -72 3 -3 122 -160 263 -350 142 -190 263 -352 270 -360
7 -9 24 -32 40 -52 l27 -37 -37 13 c-123 44 -342 145 -493 229 -247 137 -600
383 -790 553 -294 262 -416 383 -586 584 -135 159 -344 451 -344 480 0 6 -4
10 -9 10 -5 0 -11 8 -14 18 -3 9 -26 54 -51 99 -57 105 -119 257 -145 353
-120 453 64 716 499 713 112 -1 254 -22 360 -53 35 -11 66 -18 68 -16 12 12
-264 94 -431 128 -125 25 -393 33 -474 13z"/>
<path d="M1532 3075 c2 -6 122 -169 267 -363 259 -346 264 -352 280 -330 8 13
21 30 28 38 70 84 223 305 219 316 -4 10 -219 303 -252 343 -8 10 -544 6 -542
-4z"/>
<path d="M4032 1865 c2 -5 14 -32 27 -60 125 -267 161 -516 100 -680 -12 -33
-26 -61 -30 -63 -5 -2 -9 -10 -9 -17 0 -18 -73 -90 -123 -122 -23 -14 -44 -27
-46 -29 -7 -6 214 -294 224 -291 22 7 93 127 116 198 20 61 24 94 24 194 0
119 -7 198 -24 265 -14 59 -42 154 -50 175 -55 136 -111 264 -144 325 -36 67
-75 131 -65 105z"/>
</g>
</svg>
